<svg width="19" height="19" fill="none" xmlns="http://www.w3.org/2000/svg"><path d="M9.5 0C6.92 0 6.597.012 5.584.057c-1.012.047-1.7.207-2.306.442a4.652 4.652 0 0 0-1.684 1.095A4.635 4.635 0 0 0 .5 3.277C.264 3.883.104 4.572.057 5.585.009 6.597 0 6.919 0 9.5c0 2.58.012 2.903.057 3.916.047 1.011.207 1.7.442 2.306a4.66 4.66 0 0 0 1.095 1.684A4.647 4.647 0 0 0 3.277 18.5c.607.235 1.296.395 2.307.442C6.597 18.99 6.919 19 9.5 19c2.58 0 2.903-.012 3.916-.057 1.011-.048 1.7-.207 2.306-.442a4.672 4.672 0 0 0 1.684-1.095 4.64 4.64 0 0 0 1.095-1.683c.235-.606.395-1.296.442-2.307.047-1.013.057-1.335.057-3.916 0-2.58-.012-2.903-.057-3.916-.048-1.011-.207-1.702-.442-2.306a4.664 4.664 0 0 0-1.095-1.684A4.63 4.63 0 0 0 15.723.5c-.606-.235-1.296-.395-2.307-.442C12.403.009 12.081 0 9.5 0zm0 1.71c2.536 0 2.838.013 3.84.056.926.044 1.428.197 1.763.329.444.172.76.377 1.094.71.331.332.537.647.709 1.092.13.334.285.837.327 1.763.045 1.003.055 1.303.055 3.84s-.012 2.838-.058 3.84c-.049.926-.203 1.428-.334 1.763-.177.444-.379.76-.711 1.094a2.962 2.962 0 0 1-1.093.709c-.332.13-.843.285-1.769.327-1.009.045-1.306.055-3.847.055-2.542 0-2.839-.012-3.846-.058-.928-.049-1.438-.203-1.77-.334-.451-.177-.76-.379-1.092-.711a2.884 2.884 0 0 1-.713-1.093c-.13-.332-.284-.843-.332-1.769-.036-.998-.049-1.306-.049-3.835 0-2.53.013-2.839.049-3.848.048-.926.202-1.436.332-1.769.166-.451.38-.76.713-1.093a2.81 2.81 0 0 1 1.091-.711c.333-.131.832-.286 1.759-.333 1.009-.036 1.306-.048 3.846-.048l.036.024zm0 2.912a4.878 4.878 0 1 0 0 9.756 4.878 4.878 0 0 0 0-9.756zm0 8.045a3.166 3.166 0 1 1 0-6.334 3.166 3.166 0 1 1 0 6.334zm6.211-8.238a1.14 1.14 0 0 1-2.28 0 1.14 1.14 0 0 1 2.28 0z" fill="#1B1A17"/></svg>